<?xml version="1.0" encoding="utf-8"?>
<!-- Generator: Adobe Illustrator 24.1.1, SVG Export Plug-In . SVG Version: 6.00 Build 0)  -->
<svg version="1.1" id="Capa_1" xmlns="http://www.w3.org/2000/svg" xmlns:xlink="http://www.w3.org/1999/xlink" x="0px" y="0px"
	 viewBox="0 0 1366 768" style="enable-background:new 0 0 1366 768;" xml:space="preserve">
<style type="text/css">
	.st0{display:none;}
	.st1{fill:none;}
	.st2{fill:#006837;}
	.st3{fill:none;stroke:#000000;stroke-width:15;stroke-miterlimit:10;}
	.st4{fill:none;stroke:#000000;stroke-width:18;stroke-miterlimit:10;}
	.st5{fill:none;stroke:#000000;stroke-width:14;stroke-miterlimit:10;}
	.st6{fill:none;stroke:#006837;stroke-width:15;stroke-miterlimit:10;}
	.st7{fill:none;stroke:#006837;stroke-width:14;stroke-miterlimit:10;}
	.st8{fill:none;stroke:#006837;stroke-width:10;stroke-miterlimit:10;}
	.st9{fill:none;stroke:#000000;stroke-width:10;stroke-miterlimit:10;}
</style>
<g id="Capa_1_1_" class="st0">
</g>
<path class="st1" d="M123.7,741.5c0,5.8-1.8,10.3-5.5,13.6c-0.2,0.2-0.3,0.3-0.5,0.5c0.5-0.9,0.9-1.8,1.2-2.9
	c0.4-1.9,0.6-4.7,0.6-8.6v-16.2c1,1.2,1.8,2.7,2.5,4.4C123.2,735.2,123.7,738.2,123.7,741.5z"/>
<path class="st1" d="M144.9,760.6v1.3H108c5.8,0,10.4-0.3,13.6-0.9c3.2-0.6,6-1.7,8.3-3.2c1.4-1,2.7-2.1,3.8-3.5
	c0.5,1.2,1.1,2.2,2,3c1.1,1.1,2.3,1.8,3.7,2.4C140.8,760.2,142.6,760.5,144.9,760.6z"/>
<path d="M529.9,592.4c-0.2-0.2-0.5-0.4-0.9-0.5l-17,43.5L492,588.7h-22.2v3h5.7c1.9,0,3.2,0.2,3.9,0.7c0.7,0.5,1,1.2,1,2.2v40.9
	c0,3.4-0.7,5.8-2.2,7.1c-1.5,1.3-4.3,2.1-8.4,2.4v3H495v-3c-3.1-0.2-5.3-0.6-6.6-1.3c-1.3-0.7-2.4-1.7-3.1-2.9
	c-0.7-1.3-1.1-3.2-1.1-5.7v-43l23.7,56h3l19.9-50.8v-2.4C530.8,593.7,530.5,592.9,529.9,592.4z"/>
<path class="st1" d="M547.8,644.9h-3.3c-1.5,0-2.6-0.2-3.2-0.7c-0.6-0.5-1-1.1-1-2v-23.5h2V642c0,0.9,0.4,1.7,1.2,2.2
	C544.5,644.6,545.9,644.9,547.8,644.9z"/>
<path class="st1" d="M547.4,591.7c-1.9,0-3.3,0.3-3.9,0.8c-0.7,0.5-1,1.4-1,2.6v20.8h-2v-21.1c0-1,0.3-1.8,0.8-2.3
	c0.5-0.5,1.3-0.8,2.4-0.8H547.4z"/>
<path d="M578.4,588.7h-2v3h2.1L578.4,588.7z M576.5,644.9v3h4.1l0.2-4.6C579.6,644.3,578.2,644.8,576.5,644.9z"/>
<path class="st2" d="M577.4,625.8l-0.9,17.5v0c-1.2,1-2.6,1.5-4.3,1.6v3h-19.3v-3h1.9c11.2,0,17.6-6.4,19.3-19.1H577.4z"/>
<path class="st2" d="M559.7,604v27.4h-3.1c-0.1-4.5-1.2-7.8-3.1-9.7s-4.6-2.9-7.9-2.9h-3.2v-2.8h3.7c3.1,0,5.5-1,7.4-2.9
	c1.9-1.9,2.9-4.9,3.1-9H559.7z"/>
<path class="st2" d="M575.5,608.6h-3c-1.2-6.3-3.1-10.7-5.7-13.2c-2.6-2.5-6-3.8-10.1-3.8h-3.7v-3h19.3v3h2.1L575.5,608.6z"/>
<path class="st2" d="M540.4,594.8v21.1h2v2.8h-2v23.5c0,0.9,0.3,1.5,1,2c0.6,0.5,1.7,0.7,3.2,0.7h8.4v3h-30.5v-3h5.7
	c1.6,0,2.8-0.3,3.6-0.8c0.8-0.5,1.2-1.2,1.2-2.1v-50.3l-2.1,5.4v-2.4c0-1-0.3-1.8-0.9-2.3c-0.2-0.2-0.5-0.4-0.9-0.5l1.3-3.3h22.7v3
	h-9.3c-1.1,0-1.8,0.3-2.4,0.8C540.7,592.9,540.4,593.7,540.4,594.8z"/>
<rect x="509.4" y="644.9" class="st1" width="1" height="3"/>
<path class="st1" d="M532.9,591.7V642c0,0.9-0.4,1.6-1.2,2.1c-0.8,0.6-2,0.8-3.6,0.8H526c1.8,0,3-0.3,3.7-0.8
	c0.7-0.5,1.1-1.3,1.1-2.4v-44.6L532.9,591.7z"/>
<path d="M623.5,591.3c-3.6,0-6.7,1-9.4,3.1c1.1,1.6,1.7,4,1.7,7.1v33.7l-31.5-46.5h-12.5v3h2.4c1.1,0,2,0.2,2.6,0.6
	c0.5,0.3,1.3,1.1,2.5,2.6l0.6,0.8v40.1c0,2.5-0.7,4.7-2.2,6.4c-0.4,0.4-0.8,0.8-1.2,1.2v0c-1.3,1-2.9,1.5-4.7,1.6v3h19.9v-3
	c-3-0.1-5.2-0.9-6.7-2.5c-1.4-1.6-2.2-4-2.2-7.2v-35.8l32.6,48.5h3.3v-47.1c0-1.8,0.3-3.5,1-5.1c0.7-1.5,1.5-2.6,2.4-3.2
	c0.9-0.6,2.2-0.9,4-0.9C625.5,591.4,624.6,591.3,623.5,591.3z"/>
<path d="M701.8,625.9c-1.7,12.7-8.2,19.1-19.3,19.1h-10.3c-1.5,0-2.6-0.2-3.2-0.7c-0.6-0.5-1-1.1-1-2v-23.5h5.2c3.3,0,6,1,7.9,2.9
	c1.9,2,3,5.2,3.1,9.7h3.1V604h-3.1c-0.2,4-1.2,7-3.1,9c-1.9,1.9-4.4,2.9-7.4,2.9h-5.7v-21.1c0-1,0.3-1.8,0.8-2.3
	c0.5-0.5,1.3-0.8,2.4-0.8h13c4.2,0,7.5,1.3,10.1,3.8c2.6,2.5,4.5,6.9,5.7,13.2h3l-1.3-20H658l1.3,22.4h-1v30.6c0,1-0.4,1.8-1.1,2.4
	c-0.7,0.6-2,0.8-3.7,0.8H649v3h54.9l1.1-22.1H701.8z"/>
<path d="M617.3,644.9v3h2.2v-3H617.3z"/>
<path class="st2" d="M660.2,611.1v-16.3c0-1-0.3-1.8-0.9-2.3c-0.6-0.5-1.6-0.8-3-0.8h-5.4v-3h9l1.3,22.4H660.2z"/>
<path class="st2" d="M615.1,594.4c-0.8,0.7-1.6,1.5-2.3,2.4c-2.4,3-4.1,7.8-5.2,14.3h-3.3l1.4-22.4h3.9v3c2.3,0.1,4,0.8,5.1,2.3
	C614.9,594.1,615,594.3,615.1,594.4z"/>
<path class="st2" d="M660.2,594.8v16.3h-2.1c-2-13.2-7.4-19.7-16.1-19.7c-1.7,0-2.9,0.3-3.6,0.8c-0.6,0.5-1,1.4-1,2.6v47.3
	c0,1,0.3,1.7,0.9,2.1c0.6,0.5,1.7,0.7,3.1,0.7h6.7v3h-28.8v-3h5.5c1,0,1.8-0.2,2.3-0.7c0.5-0.5,0.8-1.1,0.8-1.8v-48
	c0-1-0.3-1.8-1-2.3c-0.2-0.2-0.5-0.3-0.8-0.4c0,0,0.1,0,0.1,0v-3h24.4v3h5.4c1.4,0,2.3,0.3,3,0.8
	C659.9,592.9,660.2,593.7,660.2,594.8z"/>
<path d="M459.7,698.4c-0.8-1.5-1.8-2.9-3-4.1c-0.6-0.6-1.3-1.2-2.1-1.8c-1.5-1-3.1-1.8-4.9-2.4c-1.1-0.4-2.5-0.7-4.2-1
	c-1-0.2-2.2-0.4-3.4-0.6c1.3-0.4,2.4-0.8,3.4-1.2c0.8-0.3,1.5-0.6,2.1-0.9c1.3-0.6,2.4-1.4,3.4-2.3c2.8-2.5,4.1-5.8,4.1-9.8
	c0-2.5-0.6-4.7-1.8-6.6c-1.2-2-2.9-3.6-5.1-4.8c-2.6-1.4-5.8-2.2-9.6-2.4c-0.7,0-1.9-0.1-3.7-0.1c-0.9,0-1.9,0-3,0h-33.5v1
	c1.9,0.1,3.5,0.3,4.7,0.7c1.2,0.4,2.3,1,3.2,1.9c1.1,1,1.8,2.2,2.2,3.7c0.4,1.5,0.6,3.8,0.6,6.9v33.4c0,3.1-0.2,5.4-0.6,6.9
	c-0.4,1.5-1.1,2.7-2.2,3.7c-0.9,0.8-2,1.5-3.2,1.9c-1.2,0.4-2.8,0.7-4.8,0.7v1h37.3c5,0,8.9-0.2,11.7-0.7c2.8-0.5,5.2-1.3,7.2-2.6
	c1.2-0.8,2.3-1.7,3.3-2.8c0.7-0.8,1.4-1.7,1.9-2.8c1.2-2.3,1.9-4.8,1.9-7.6C461.5,703.3,460.9,700.8,459.7,698.4z M420.1,661.9h4.7
	c3.6,0,6.4,0.2,8.1,0.5c1.8,0.4,3.4,1,4.8,2c1.6,1.1,2.9,2.8,3.8,4.8c1,2.1,1.5,4.3,1.5,6.6c0,2.2-0.5,4.2-1.4,6
	c-0.9,1.8-2.3,3.3-4,4.4c-0.9,0.6-1.9,1-3,1.4c-1.1,0.3-2.6,0.6-4.4,0.9c-2.1,0.2-4.1,0.4-6,0.4h-4.1V661.9z M444.4,717
	c-0.1,0.1-0.3,0.2-0.5,0.4c-3.1,2.4-7.3,3.6-12.5,3.6c-4.2,0-7.2-1-8.9-3c-0.8-1-1.4-2.1-1.8-3.5c-0.4-1.4-0.5-3.2-0.5-5.5v-18.7
	h9.1c6.5,0,11.3,1.1,14.4,3.4c0.7,0.5,1.3,1,1.8,1.7c0.9,1,1.6,2.2,2.2,3.5c1,2.3,1.5,4.7,1.5,7.3
	C449.1,710.7,447.5,714.4,444.4,717z"/>
<path d="M457.2,715c-0.4-1.5-0.6-3.8-0.6-6.9v-13.9c-0.6-0.6-1.3-1.2-2.1-1.8c-1.5-1-3.1-1.8-4.9-2.4c-1.1-0.4-2.5-0.7-4.2-1v6.1
	c0.9,1,1.6,2.2,2.2,3.5c1,2.3,1.5,4.7,1.5,7.3c0,4.6-1.6,8.2-4.8,10.9c-0.1,0.1-0.3,0.2-0.5,0.4c-0.3,0.5-0.7,1-1.2,1.4
	c-0.9,0.8-2,1.5-3.2,1.9s-2.8,0.7-4.8,0.7v1h0.8c5,0,8.9-0.2,11.7-0.7c2.8-0.5,5.2-1.3,7.2-2.6c1.2-0.8,2.3-1.7,3.3-2.8
	C457.5,715.9,457.4,715.5,457.2,715z M442.7,664.1c1.1,1,1.8,2.2,2.2,3.7c0.4,1.5,0.6,3.8,0.6,6.9v12.7c0.8-0.3,1.5-0.6,2.1-0.9
	c1.3-0.6,2.4-1.4,3.4-2.3c2.8-2.5,4.1-5.8,4.1-9.8c0-2.5-0.6-4.7-1.8-6.6c-1.2-2-2.9-3.6-5.1-4.8c-2.6-1.4-5.8-2.2-9.6-2.4
	c-0.7,0-1.9-0.1-3.7-0.1v1c1.9,0.1,3.5,0.3,4.7,0.7C440.7,662.6,441.8,663.3,442.7,664.1z"/>
<path class="st2" d="M497.3,720.6c-0.8-0.4-1.6-1-2.5-2c-1.1-1.1-2.4-3-3.9-5.6c-1.5-2.6-3.8-6.6-6.9-12.1c-1.3-2.4-2.3-4.1-2.9-5.1
	c-0.6-1-1.4-1.7-2.1-2.4c-1-0.8-2.5-1.6-4.5-2.4c2.5-0.5,4.5-1,5.9-1.5c1.5-0.5,2.8-1.2,4.1-2.1c4-2.8,6-6.6,6-11.3
	c0-3.2-0.9-6-2.8-8.4c-1.9-2.4-4.5-4.2-7.8-5.4c-3-1.1-7.1-1.7-12.4-1.9c-1.3,0-4,0-8.1,0h-24.6v0c1.8,0,3,0,3.7,0.1
	c3.9,0.3,7.1,1.1,9.6,2.4c2.2,1.2,3.9,2.8,5.1,4.8c1.2,2,1.8,4.2,1.8,6.6c0,4-1.4,7.2-4.1,9.8c-1,0.9-2.1,1.7-3.4,2.3
	c-0.6,0.3-1.3,0.6-2.1,0.9v1.7c1.7,0.3,3.1,0.7,4.2,1c1.8,0.6,3.4,1.4,4.9,2.4c0.7,0.5,1.4,1.1,2.1,1.8v-2.2h2.5
	c1.5,0,2.8,0.1,3.9,0.4c1.1,0.3,2,0.7,3,1.3c1.8,1.2,3.8,3.5,6,6.8c2.2,3.3,4.3,7.2,6.5,11.5l3.6,7.2c0.2,0.5,0.8,1.5,1.6,3.2h16.9
	v-1C499.2,721.3,498.1,721,497.3,720.6z M472.8,687.8c-1.6,1.3-3.3,2.2-5.1,2.6c-1.8,0.4-4.8,0.6-9.1,0.6h-1.9v-29.2h2.1
	c3.6,0,6.4,0.2,8.4,0.6c2,0.4,3.7,1.1,5.1,2.2c1.8,1.4,3.3,3.1,4.3,5.2c1,2.1,1.6,4.4,1.6,6.7C478.1,681.1,476.3,684.8,472.8,687.8z
	"/>
<path class="st1" d="M449.1,706.1c0,4.6-1.6,8.2-4.8,10.9c-0.1,0.1-0.3,0.2-0.5,0.4c0.5-0.7,0.8-1.5,1-2.3c0.4-1.5,0.6-3.8,0.6-6.9
	v-12.9c0.9,1,1.6,2.2,2.2,3.5C448.6,701,449.1,703.5,449.1,706.1z"/>
<path class="st1" d="M467.4,721.4v1h-31.8c5,0,8.9-0.2,11.7-0.7c2.8-0.5,5.2-1.3,7.2-2.6c1.2-0.8,2.3-1.7,3.3-2.8
	c0.4,0.9,1,1.7,1.7,2.4c0.9,0.8,2,1.5,3.2,1.9C463.8,721,465.4,721.3,467.4,721.4z"/>
<path d="M507.6,717.6c-0.6-0.9-1.1-2-1.3-3.5c-0.3-1.5-0.4-3.4-0.4-5.9v-33.4c0-2.1,0.1-3.9,0.3-5.5c0.3-2.1,1.1-3.8,2.4-5
	c1-0.9,2-1.5,3.2-1.9c1-0.3,2.2-0.5,3.7-0.7c-0.4,0-0.9-0.1-1.3-0.1v-1H484v1c1.9,0.1,3.5,0.3,4.7,0.7c1.2,0.4,2.3,1,3.2,1.9
	c1.1,1,1.8,2.2,2.2,3.7c0.4,1.5,0.6,3.8,0.6,6.9v33.4c0,3.1-0.2,5.4-0.6,6.9c-0.4,1.5-1.1,2.7-2.2,3.7c-0.9,0.8-2,1.5-3.2,1.9
	c-1.2,0.4-2.8,0.7-4.8,0.7v1h30.2v-1.1c0.4,0,0.8,0,1.3,0c-1.8-0.2-3.3-0.5-4.4-1C509.6,719.7,508.5,718.8,507.6,717.6z"/>
<path class="st2" d="M516.6,721.4v1h-2.4v-1.1c0.4,0,0.8,0,1.3,0h0C515.8,721.3,516.2,721.4,516.6,721.4z"/>
<path class="st2" d="M516.6,660.5v1c-0.4,0-0.7,0-1.1,0.1c0,0,0,0,0,0c-0.4,0-0.9-0.1-1.3-0.1v-1H516.6z"/>
<path class="st2" d="M575.8,703.8l-0.7,18.6h-58.5v-1c-0.4,0-0.8,0-1.1-0.1c2.8-0.2,5.1-1,6.7-2.6c1.1-1,1.8-2.2,2.2-3.7
	c0.4-1.5,0.6-3.8,0.6-6.9v-33.4c0-3.2-0.2-5.6-0.6-7.1c-0.4-1.5-1.2-2.8-2.4-3.7c-1-0.8-2-1.4-3.2-1.7c-0.9-0.3-1.9-0.5-3.2-0.6
	c0.3,0,0.7-0.1,1.1-0.1v-1h30.2v1c-1.9,0.1-3.4,0.3-4.6,0.7c-1.2,0.4-2.2,0.9-3.2,1.7c-1.2,1-1.9,2.3-2.3,3.8
	c-0.4,1.5-0.6,3.9-0.6,7v26.2c0,4,0.1,7,0.4,9c0.2,2,0.7,3.6,1.4,4.8c1.2,2.2,3,3.8,5.3,4.8c2.3,1,5.5,1.5,9.3,1.5
	c4,0,7.5-0.5,10.2-1.4c2.8-1,5-2.4,6.8-4.4c1.2-1.4,2.2-2.9,2.9-4.6c0.8-1.7,1.5-4,2.1-6.8L575.8,703.8z"/>
<path d="M623.5,703.7c-0.6,2.8-1.4,5.1-2.1,6.8c-0.8,1.7-1.7,3.3-2.9,4.6c-1.8,2-4,3.5-6.8,4.4c-1,0.3-2.1,0.6-3.3,0.9
	c-2,0.4-4.3,0.6-6.9,0.6c-2.8,0-5.2-0.3-7.2-0.8c-0.8-0.2-1.5-0.4-2.2-0.7c-2.3-1-4.1-2.6-5.3-4.8c-0.7-1.2-1.1-2.8-1.4-4.8
	c-0.2-2-0.4-5-0.4-9v-26.2c0-3.2,0.2-5.5,0.6-7c0.4-1.5,1.2-2.8,2.3-3.8c0.9-0.8,2-1.4,3.2-1.7c1.2-0.4,2.7-0.6,4.6-0.7v-1h-32.6v1
	c1.8,0.1,3.3,0.3,4.5,0.6c1.2,0.4,2.2,0.9,3.2,1.7c1.2,1,1.9,2.2,2.4,3.7c0.4,1.5,0.6,3.9,0.6,7.1v33.4c0,3.1-0.2,5.4-0.6,6.9
	c-0.4,1.5-1.1,2.7-2.2,3.7c-1.9,1.7-4.5,2.6-8,2.6v1.1h60.9l0.7-18.6L623.5,703.7z"/>
<path d="M608.3,720.4c-2,0.4-4.3,0.6-6.9,0.6c-2.8,0-5.2-0.3-7.2-0.8c-1.3,0.7-2.9,1.1-4.7,1.2v1h22.9v-1
	C610.9,721.3,609.5,720.9,608.3,720.4z"/>
<path class="st2" d="M659.4,720.6c-1.1-0.3-2-0.7-2.8-1.2c-1.2-0.8-2.2-2-3.2-3.5c-1-1.5-2.3-4.1-4-7.7l-11-23.6v23.6
	c0,0.5,0,1,0,1.4l0.2,0.5c1,2.1,1.4,3.8,1.4,5c0,0.7-0.1,1.3-0.3,1.9c0.4,0.7,0.8,1.2,1.4,1.8c0.9,0.9,2,1.5,3.2,1.9
	c1.2,0.4,2.8,0.6,4.7,0.7v1h15v-1C662,721.2,660.4,720.9,659.4,720.6z M625.6,661.5v-1h-1.3l-18.7,42.8c-1.7,3.9-3.1,6.8-4.1,8.8
	c-1,2-2.1,3.5-3.2,4.8c-1.3,1.5-2.6,2.7-4,3.4c0,0,0,0-0.1,0c2,0.5,4.4,0.8,7.2,0.8c2.6,0,4.8-0.2,6.9-0.6c-0.4-0.2-0.7-0.3-1-0.5
	c-1-0.6-1.7-1.4-2.3-2.4c-0.6-1-0.8-2-0.8-3.1c0-1.9,0.8-4.5,2.3-7.9l1.3-2.8l2.7-6.3h22.4l3.4,7.5v-24.9l-8.6-18.4
	C627.1,661.6,626.4,661.5,625.6,661.5z M611.3,695.6l10.1-23.5l10.7,23.5H611.3z"/>
<path d="M690.2,662.1c-3.2,0.1-5.8,0.4-8,0.8c0.6,0.3,1.2,0.8,1.8,1.3c1.1,1,1.8,2.2,2.2,3.7c0.4,1.5,0.6,3.8,0.6,6.9v32.8l-41.4-47
	h-18.1l0.6,1.2c1,0.1,1.9,0.3,2.6,0.5c1.2,0.4,2.3,1,3.2,1.9c1.1,1,1.8,2.2,2.2,3.7c0.4,1.5,0.6,3.8,0.6,6.8v5.4l2.1,4.5v-15.9
	l47.9,53.5v-0.8c0.9,0,1.7-0.1,2.5-0.2v-46.5c0-3.1,0.2-5.3,0.6-6.8c0.4-1.5,1.1-2.7,2.2-3.7c1.2-1.1,2.7-1.8,4.4-2.3
	C694.1,661.9,692.2,662,690.2,662.1z"/>
<path class="st2" d="M638.4,709.6l-0.6-1.4l-1.5-3.2v-24.9l2.1,4.5v23.6C638.4,708.7,638.4,709.1,638.4,709.6z"/>
<path class="st2" d="M627.8,661.7c-0.7-0.1-1.4-0.1-2.2-0.2v-1h1.6L627.8,661.7z"/>
<path class="st2" d="M649.1,721.4v1h-18.5v-1c3-0.2,5.1-0.7,6.3-1.4c1.4-0.8,2.4-1.8,2.8-3c0.4,0.7,0.8,1.2,1.4,1.8
	c0.9,0.9,2,1.5,3.2,1.9C645.6,721,647.2,721.3,649.1,721.4z"/>
<path class="st1" d="M639.8,717c-0.5,1.2-1.4,2.2-2.8,3c-1.2,0.7-3.3,1.1-6.3,1.4v1h-5v-1c1.9-0.1,3.5-0.3,4.7-0.7
	c1.2-0.4,2.3-1,3.2-1.9c1.1-1,1.8-2.2,2.2-3.7c0.4-1.5,0.6-3.8,0.6-6.9V705l1.5,3.2l0.6,1.4c0,2.4,0.2,4.2,0.6,5.5
	C639.2,715.8,639.4,716.4,639.8,717z"/>
<path d="M686.3,722.2v0.2h0.2L686.3,722.2z"/>
<path class="st2" d="M688.8,721.1v1.3h-2.3l-0.2-0.2v-0.8C687.2,721.3,688,721.3,688.8,721.1z"/>
<path class="st2" d="M682.2,662.9c-1.4,0.3-2.7,0.6-3.7,1c-2.6,0.9-4.7,2.6-6.4,4.9c-1.5,2.1-2.7,5-3.5,8.6l-1.2-0.1l0.9-16.7h7.6v1
	c1.9,0.1,3.5,0.3,4.7,0.7C681.2,662.4,681.7,662.6,682.2,662.9z"/>
<path class="st2" d="M699.5,660.5v1c-1.3,0-2.4,0.1-3.5,0.4h0c-1.8,0-3.8,0.1-5.8,0.2c-3.2,0.1-5.8,0.4-8,0.8
	c-0.5-0.3-1-0.5-1.5-0.6c-1.2-0.4-2.8-0.6-4.7-0.7v-1H699.5z"/>
<path class="st2" d="M737.2,674.7v2.6l-0.1,0c-0.9-4.2-2.4-7.4-4.3-9.6c-2-2.2-4.8-3.7-8.5-4.7c-3.2-0.8-8.5-1.2-16.1-1.2v46.3
	c0,3.1,0.2,5.4,0.6,6.9c0.4,1.5,1.1,2.7,2.2,3.7c1,0.9,2,1.5,3.2,1.9c1.2,0.4,2.8,0.6,4.7,0.7v1h-30.1v-1.3c0.9-0.1,1.6-0.3,2.3-0.5
	c1.2-0.4,2.3-1,3.2-1.9c1.1-1,1.8-2.2,2.2-3.7c0.4-1.5,0.6-3.8,0.6-6.9v-46.3c-0.4,0-0.7,0-1.1,0c1.1-0.3,2.2-0.4,3.5-0.4v-1h27v1
	c2,0.1,3.6,0.3,4.8,0.7c1.2,0.4,2.3,1,3.2,1.9c1.1,1,1.8,2.2,2.2,3.7C737,669.3,737.2,671.6,737.2,674.7z"/>
<path d="M786.9,704.3c-0.6,2.7-1.4,4.9-2.1,6.6c-0.5,1.1-1.1,2-1.7,2.9c-0.4,0.5-0.8,1-1.3,1.5c-1.3,1.5-2.9,2.6-4.8,3.5
	c-0.6,0.3-1.2,0.5-1.9,0.7c-2.8,0.9-6.2,1.4-10.3,1.4c-3.9,0-7-0.5-9.4-1.5c-2.4-1-4.1-2.6-5.3-4.8c-0.7-1.3-1.1-2.9-1.4-4.7
	c-0.2-1.9-0.4-4.9-0.4-9.1v-10.4h2.9c2.5,0,4.6,0.2,6.2,0.7s3,1.2,4,2.1c1.1,1,1.9,2.2,2.5,3.6s1,3.3,1.4,5.6h1.2l0.2-24.3l-1.2,0
	c-0.3,2.3-0.7,4.1-1.1,5.3c-0.5,1.2-1.2,2.2-2.1,3.1c-1,0.9-2.3,1.6-3.8,1.9c-1.6,0.4-3.9,0.5-7,0.5h-3.1v-27.2h11.7
	c3.6,0,6.5,0.2,8.7,0.7c2.2,0.4,4.1,1.2,5.7,2.2c1.9,1.3,3.4,2.7,4.4,4.4c0.4,0.7,0.8,1.5,1.2,2.4c0.3-1,0.6-1.9,1.1-2.8
	c0.2-0.4,0.4-0.8,0.7-1.2l-0.4-7.1h-44l0.9,16.7l-1.1,0.1v30.9c0,3.1-0.2,5.4-0.6,6.9c-0.4,1.5-1.1,2.7-2.2,3.7
	c-1,0.9-2,1.5-3.2,1.9c-1.2,0.4-2.8,0.6-4.7,0.7v1h60.9l0-1l0.1-2.8l0.5-14.3L786.9,704.3z"/>
<path class="st2" d="M737.2,677.3v-2.6c0-3.1-0.2-5.4-0.6-6.9c-0.4-1.5-1.1-2.7-2.2-3.7c-0.9-0.9-2-1.5-3.2-1.9
	c-1.2-0.4-2.8-0.6-4.8-0.7v-1h10.9l0.9,16.7L737.2,677.3z"/>
<path d="M783.3,714.3c-0.1-0.1-0.2-0.3-0.3-0.4c-0.4,0.5-0.8,1-1.3,1.5c-1.3,1.5-2.9,2.6-4.8,3.5l0,2.8h1.2c0.6-1.5,1.7-2.2,3.4-2.2
	c0.5,0,1,0.1,1.4,0.2c0.4,0.1,1.7,0.6,3.8,1.4c0.3,0.1,0.5,0.2,0.8,0.3l0.1-2.8C786,717.5,784.6,716,783.3,714.3z"/>
<path class="st2" d="M782.2,675.4l-1.2,0c-0.3-1.4-0.6-2.7-1-3.9c0.3-1,0.6-1.9,1.1-2.8c0.2-0.4,0.4-0.8,0.7-1.2L782.2,675.4z"/>
<path class="st1" d="M783,713.8c-0.4,0.5-0.8,1-1.3,1.5c-1.3,1.5-2.9,2.6-4.8,3.5l0.1-15.9l1.2,0C779.6,707.5,781.2,711.1,783,713.8
	z"/>
<path class="st2" d="M821.6,704.4c0,2.8-0.6,5.4-1.9,8c-1.8,3.5-4.4,6.3-8,8.2c-3.5,1.9-7.7,2.9-12.5,2.9c-4.1,0-8-0.7-11.8-2
	l0.1-2.8c2.9,2.2,6.1,3.3,9.8,3.3c3.9,0,7.1-1.2,9.7-3.5c2.6-2.3,3.8-5.3,3.8-8.9c0-1.5-0.3-3.1-0.8-4.7c-0.6-1.6-1.3-3-2.3-4.1
	c-1-1.2-2.4-2.3-4.2-3.4c-1.8-1.1-4.5-2.5-8.2-4.1c-3.2-1.4-5.7-2.7-7.4-3.7c-1.7-1-3.1-2-4.2-3c-2.9-2.8-4.4-6.3-4.4-10.4
	c0-1.5,0.2-3,0.6-4.4c0.4,1.2,0.8,2.5,1,3.9l1.2,0l-0.5-7.9c1.1-1.8,2.4-3.4,4.1-4.8c3.6-3,7.9-4.4,12.8-4.4c1.6,0,3.1,0.1,4.4,0.4
	c1.4,0.3,3.2,0.9,5.5,1.7c1.7,0.6,2.9,1,3.5,1.2c0.6,0.2,1.2,0.2,1.6,0.2c1.2,0,2-0.8,2.4-2.3h1.2l0.4,18h-1.2
	c-0.9-2.9-1.7-5.1-2.4-6.6c-0.7-1.5-1.5-2.9-2.4-4.2c-1.7-2.4-3.5-4.1-5.5-5.2c-2-1.1-4.3-1.7-6.9-1.7c-3.8,0-6.8,1.2-9,3.5
	c-0.9,0.9-1.6,2-2.2,3.3c-0.5,1.3-0.8,2.5-0.8,3.8c0,5.1,3.7,9.1,11,12.2l7.2,3.1c5.5,2.3,9.5,4.9,12,7.7
	C820.2,696.5,821.6,700.2,821.6,704.4z"/>
<g>
	<path class="st3" d="M612.8,226.7c0.1,0.2,8-1.5,16-7.6c4.4-3.4,6.8-6.6,11.3-12.5c7.3-9.7,7.9-13.7,14.4-18.7
		c0.8-0.6,0.5-0.3,6.3-4.6c7.6-5.5,9.5-7,9.6-6.9c0.3,0.3-8.9,8.4-12.9,11.9c-10.3,9-10.2,8.5-12.7,11.1c-8,8.4-6.7,11.1-13,16.9
		C622.9,224.8,612.7,226.5,612.8,226.7z"/>
	<g>
		<path class="st4" d="M691.9,583.5c-6.7,2.1-16.2,4.8-27.7,6.8c-29.2,5.1-51.8,2.8-58.8,2c-13.3-1.6-22.1-2.6-33.5-7.1
			c0,0-15.3-6.1-41.6-25.3c0,0-15.7,4.2-17.6,4.7c-10,2.6-30.9,5-52.1-2c0,0-25-8.3-44.6-30.4c-2.6-2.9-8-9.5-16.9-17.6
			c-6.2-5.7-8.7-7.2-13.5-11.5c0,0-11-9.8-20.3-23c-15.3-21.8-19.2-46.9-20.3-56.8c-2.8-25.5,2.9-45.1,6.8-58.1
			c1.7-5.8,6.6-20.9,16.9-38.5c2.2-3.8,13.3-22.4,33.8-41.9c11.9-11.3,30.8-29.3,54.8-37.9c3.3-1.2,9.8-3.3,17.6-8.1
			c11.2-6.9,17.1-14.6,21.6-19.6c13.2-14.8,27.7-22.8,39.2-29.1c20.6-11.4,38.7-14.9,55.4-18.3c20.7-4.1,33.8-3.8,40.6-3.4
			c6.1,0.4,10.6,0.7,16.6,2.1c12,2.8,14.5,6.3,21.9,6c7.2-0.3,9.1-3.7,18.3-7.4c7.8-3.2,14.5-3.7,27.7-4.7
			c17.2-1.3,30.2-2.3,47.3,1.4c7.1,1.5,22.2,4.8,38.5,14.9c9.2,5.7,19,11.7,28.7,22.7c4.9,5.6,7.8,10.1,14.6,13.1
			c7.3,3.3,11.1,1.3,20.3,2.8c10.1,1.6,16.8,5.7,26.4,11.5c12.7,7.7,20.5,16.1,26.4,22.3c4.6,5,14.4,16.1,23,32.5
			c0.8,1.6,4.9,9.3,8.8,20.1c1.8,4.8,4.5,12.4,6.7,22.5c1.4,6.8,1,7,2,10.1c3.3,9.9,10.6,15.6,13.5,18.3c10.2,9.1,13.8,22,18.2,37.9
			c7.9,28.3,1,52.8-3.4,68.3c-3,10.6-6.7,23.1-16.9,35.8c-5.5,6.8-10.3,12.9-19,17.5c-7.7,4.1-12.1,3.7-16.8,8.9
			c-4.2,4.6-4,8.6-6.8,17.6c0,0-4,13.3-12.2,26.4c-7.4,11.8-16,19.6-21,23.7c-11.1,9-16.7,13.5-25.7,15.5c-3.5,0.8-8,1.4-9.1,4.2
			c-1,2.8,2.1,5.6,5.7,10.6c1.8,2.5,2.6,3.6,11.5,26.4c12.1,30.8,13,33.9,17.2,41.1c5.3,9,7.9,13.5,12.7,17.2
			c18.5,14.5,46.5,4.7,46.5,5.2c0.1,0.5-39.6,15-73.6-1.2c-6.4-3.1-15.5-8.6-23.8-14.7c-8.7-6.4-15.1-12.4-23-19.8
			c-11-10.4-12.5-11.5-19.6-19.6c-3.9-4.4-13.8-12-33.8-27c-15.8-12-9.6-6.7-34.5-25c-14-10.3-19.2-14.3-28.4-17.6
			C707,584,698,583.4,691.9,583.5z"/>
		<path class="st5" d="M395.1,504.8c-0.5,0-8.4-30.7,6-45.3c8.1-8.2,21.2-9.1,21.3-9c0,0.1-6.1,1.3-12.7,6.1
			c-2.4,1.7-8.5,6.4-11.7,14.5c-0.6,1.5-1.1,3.3-2,15.7C395,501.3,395.3,504.8,395.1,504.8z"/>
		<path class="st3" d="M536,559.7c-1-2.2,1.2-5,3.5-8c3.3-4.4,6.3-8.9,9.6-13.2c0,0,5.7-7.3,9.4-16.5c6.4-16.1,0.2-31.3,0.8-31.4
			c0.7-0.1,12,23.5,2,40.8c-4.8,8.3-10.9,9-13.7,18.5c-3.1,10.5,1.1,21.4-0.2,21.7c-0.9,0.2-1.6-5.8-6.7-9
			C538.4,561.1,536.7,561.3,536,559.7z"/>
		<path class="st5" d="M659.3,551.9c0.1-0.5,8.2-2,16.4,1.5c6.3,2.7,6.8,5.9,15.7,10.7c3.1,1.7,5.7,2.7,9.5,4.2
			c12,4.7,14.5,5.3,16.4,8.5c2.2,3.8,2,9.3-0.3,10.8c-1.5,1-2.7-0.5-9.4-2.6c-6.3-2-8.8-1.7-11.1-4.3c-1.2-1.3-1.2-1.9-2.2-4.4
			c-1.3-3.3-3.5-5.5-7.8-9.8c-5.1-5.1-7.8-7.8-12-10.1C666.5,551.9,659.3,552.4,659.3,551.9z"/>
		<path class="st3" d="M865.5,608.6c-1-4.4-4.5-6.5-12.2-11.8c-13-9-19.5-13.5-21.6-14.5c-12.3-6.3-24-9.3-24.2-9
			c-0.1,0.2,2.5,1.2,8.1,3.9c7.5,3.6,13.6,6.5,19.8,10.7c5.6,3.7,11,7.3,15.9,13.7c7.5,9.8,7.7,18.3,10.5,18.1
			C864.2,619.5,866.6,613.6,865.5,608.6z"/>
		<path class="st3" d="M945,514.9c0-3.5-4.7-4.2-9.1-9.3c-7.3-8.3-8-18.8-8.1-20.8c-0.5-8.3,2.2-14.9,1.7-15c-0.3-0.1-2,3.5-2.9,7.9
			c-1.3,6.8,0.3,12.6,3.5,24c0.2,0.7,1.4,4.9,3.7,10.1c3.6,8.2,5.3,8.5,5.9,8.6C942,520.6,944.9,517.6,945,514.9z"/>
		<path class="st3" d="M955.3,321.1c-4.9-6-16.4-3.5-21.8-2.3c-19.3,4.1-33.1,16.4-32.7,17c0.2,0.3,3.5-2.1,12.2-5.8
			c9.2-3.9,13.8-5.9,18.8-6.3c13.6-1.3,22.8,7.5,25.3,4.4C958.2,326.4,957,323.1,955.3,321.1z"/>
		<path class="st3" d="M840.9,215.3c-1.1,0.5,11.2,17,6.6,34.7c-1.5,5.8-4,8.7-2.5,13.2c2.7,8.5,15.7,11.5,15.5,11.9
			c-0.1,0.3-4.3-1-8.5-3.8c-2.8-2-5.2-3.6-6.4-6.7c-1.1-2.8-0.8-5.4-0.6-6.5c0.3-2.4,1-3.4,1.9-5.6c1.4-3.6,1.5-6.6,1.8-11.1
			c0.1-2.5,0.3-6-0.5-10.4C846.4,222.1,841.6,215,840.9,215.3z"/>
		<path class="st3" d="M471.8,253.1c-1.4,5.6-1.4,8.2-1.3,9.6c0.3,5.3,2.4,9.7,2.8,9.6c0.5-0.1-1.8-6.1-1.5-14.2
			c0.4-11.4,5.5-19.4,5.3-19.5C477,238.5,473.9,244.7,471.8,253.1z"/>
		<path class="st6" d="M432,351.4c-0.5,0-4.1,14.2-3,31.9c0.5,8.1,2.5,35,22.3,59.8c3.7,4.6,14.9,17.7,33.2,26.9
			c5.5,2.7,12.6,5.6,12.9,5c0.4-0.7-10.3-6-21.9-14.2c-13.8-9.6-25.7-18-33.8-32.2c-6.9-12-8-23.2-9.7-38.8
			C429.7,367.8,432.5,351.5,432,351.4z"/>
		<path class="st6" d="M730.1,552.2c0,1.2,29.7,11,51.7-3.5c24-15.9,25.2-51.6,24.8-51.7c-0.3-0.1-1.5,29-22.3,45.1
			C761.9,559.4,730.2,551,730.1,552.2z"/>
		<path class="st6" d="M616.2,460.8c0-0.3,14.7,2.1,35.8,1.3c33.8-1.2,44.3-9.1,75.4-14.5c44.9-7.8,82.3-1.6,82.3-1.4
			c0,0.1-15,0.3-23.5,0.3c-16.5,0.1-15.6-0.3-21.6,0c-9.9,0.4-17.5,1.6-32.8,4.1c-10.9,1.7-19.1,3.3-21.3,3.7
			c-19.1,3.7-26.7,6.1-34.8,7.8C644.1,468.6,616.2,461.2,616.2,460.8z"/>
		<path class="st7" d="M851.2,519.6c-0.5-0.2,10.6-20.6,2.7-39.5c-4-9.6-11.6-15.7-16.6-19.6c-14-11.1-27.8-13.5-27.5-14.2
			c0.2-0.6,12.6,0.5,24.9,8.2c4.4,2.8,18.3,11.5,23,28C863.1,502.1,851.7,519.7,851.2,519.6z"/>
		<path class="st6" d="M639.9,382.9c-0.2,0.1-5.2-28-28.9-51.2c-28.3-27.6-65.3-30.6-64.9-31.9c0.3-1.1,28.5-0.8,53.2,17.2
			C632.5,341.1,640.1,382.8,639.9,382.9z"/>
		<path class="st7" d="M614,320.5c-0.3-0.5,23.2-21.2,59.3-32.5c12.5-3.9,37.2-11.3,66.9-6.6c42.3,6.7,70.7,34.2,71.5,33
			c0.5-0.8-11.3-10.8-26.9-18.3c-4.8-2.3-15.7-7.2-31.9-10.1c-42-7.7-79.2,4.6-90.3,8.6C632.3,305.6,614.3,320.9,614,320.5z"/>
		<path class="st7" d="M733.3,280.5c-0.3-0.9,13.7-3.2,22.2-14.8c7.6-10.4,9.5-26.4,3-32.5c-2.2-2.1-5.3-2.9-5.6-2.5
			c-0.4,0.6,5.1,3.4,8.3,9.1c3.2,5.7,2.6,11.6,2.4,13.7c-1.2,11.7-10.5,18.5-13.1,20.4C742.5,280,733.5,281.2,733.3,280.5z"/>
		<path class="st7" d="M813.6,442.2c-0.5-0.1-0.4-20,11.5-38.5c20.1-31.4,61.2-39.3,61.5-38.5c0.2,0.5-15,5.9-35.9,21.5
			c-8.7,6.5-13.6,10.1-18.9,16.4C816.2,421.4,814.1,442.3,813.6,442.2z"/>
	</g>
	<path class="st8" d="M700.1,141.4c-3.3,0.1-8.6-43.8-10.1-82.6c-1.4-36.7,0.5-71.8,2.3-71.9c2.1-0.1,4.7,42.9,5.1,51.2
		c0.5,9.2,0.6,13.1,0.6,13.1c0.3,10.4,0,13.9,1.1,24.4c1.3,12.4,3.3,23.7,3.8,27.5C705.8,121.5,702.3,141.3,700.1,141.4z"/>
	<path class="st9" d="M917.5,215.8c0.4,0.6,37.1-15.5,63.6-50.9c23.2-31.1,28.6-63.4,28.1-63.6c-0.4-0.2-6.3,18.8-22.4,41.2
		c-3.2,4.5-6.2,8.2-8.5,11c-6.6,8.8-8.5,12-15.9,20.4c-2.7,3.1-10.5,12-20.4,21.4C927.4,209.1,917.2,215.5,917.5,215.8z"/>
	<path class="st9" d="M422.2,209.7c-0.4,0.6-38.7-10.7-69.4-42.6c-26.9-27.9-36.2-59.4-35.8-59.6c0.4-0.2,8.6,17.9,27.3,38.1
		c3.7,4,7.1,7.3,9.8,9.9c7.6,7.9,9.9,10.8,18.3,18.3c3.1,2.7,11.9,10.6,22.9,18.7C411.5,204.2,422.4,209.3,422.2,209.7z"/>
	<path class="st8" d="M1024,390.3c0.1,0.7,39.8,5.6,80.7-11.3c35.8-14.8,56.9-40,56.6-40.4c-0.2-0.3-15,12.9-40.3,24
		c-5.1,2.2-9.5,3.9-13,5.1c-10.2,4.2-13.4,6-24.1,9.4c-3.9,1.3-15.2,5-28.4,8C1036,389.6,1023.9,389.9,1024,390.3z"/>
	<path class="st8" d="M306.4,374.2c-0.2,0.7-40.1-2.1-77-26.6c-32.3-21.4-48.2-50.1-47.9-50.5c0.3-0.3,12.3,15.6,34.9,31.3
		c4.5,3.1,8.6,5.6,11.7,7.5c9.2,6,12,8.4,21.8,13.9c3.6,2,13.9,7.8,26.4,13.3C294.7,371.2,306.5,373.8,306.4,374.2z"/>
</g>
</svg>
