<?xml version="1.0" encoding="utf-8"?>
<!-- Generator: Adobe Illustrator 24.1.1, SVG Export Plug-In . SVG Version: 6.00 Build 0)  -->
<svg version="1.1" id="Capa_1" xmlns="http://www.w3.org/2000/svg" xmlns:xlink="http://www.w3.org/1999/xlink" x="0px" y="0px"
	 viewBox="0 0 1366 768" style="enable-background:new 0 0 1366 768;" xml:space="preserve">
<style type="text/css">
	.st0{display:none;}
	.st1{stroke:#FFFFFF;stroke-width:20;stroke-miterlimit:10;}
	.st2{fill:none;stroke:#FFFFFF;stroke-width:15;stroke-miterlimit:10;}
	.st3{fill:none;stroke:#FFFFFF;stroke-width:18;stroke-miterlimit:10;}
	.st4{fill:none;stroke:#FFFFFF;stroke-width:14;stroke-miterlimit:10;}
	.st5{fill:none;stroke:#FFFFFF;stroke-width:10;stroke-miterlimit:10;}
</style>
<g id="Capa_1_1_" class="st0">
</g>
<g id="lo">
	<circle class="st1" cx="712" cy="402.8" r="309.6"/>
	<g>
		<path class="st2" d="M681.5,306.7c0,0.1,4.7-0.8,9.3-3.9c2.5-1.7,4-3.4,6.5-6.5c4.2-5,4.6-7.1,8.3-9.6c0.4-0.3,0.3-0.2,3.7-2.4
			c4.4-2.8,5.5-3.6,5.6-3.5c0.2,0.2-5.1,4.3-7.5,6.1c-5.9,4.7-5.9,4.4-7.4,5.8c-4.7,4.3-3.9,5.7-7.5,8.7
			C687.4,305.7,681.4,306.6,681.5,306.7z"/>
		<g>
			<path class="st3" d="M727.4,490.8c-3.9,1.1-9.4,2.4-16.1,3.5c-16.9,2.6-30.1,1.5-34.1,1c-7.7-0.8-12.8-1.3-19.4-3.7
				c0,0-8.9-3.1-24.1-13.1c0,0-9.1,2.2-10.2,2.4c-5.8,1.4-17.9,2.6-30.2-1c0,0-14.5-4.3-25.9-15.7c-1.5-1.5-4.7-4.9-9.8-9.1
				c-3.6-2.9-5-3.7-7.8-5.9c0,0-6.4-5.1-11.8-11.9c-8.9-11.3-11.1-24.2-11.8-29.3c-1.6-13.2,1.7-23.2,3.9-30c1-3,3.8-10.8,9.8-19.9
				c1.3-2,7.7-11.5,19.6-21.6c6.9-5.8,17.8-15.1,31.8-19.5c1.9-0.6,5.7-1.7,10.2-4.2c6.5-3.6,9.9-7.5,12.6-10.1
				c7.7-7.6,16.1-11.7,22.7-15c12-5.9,22.5-7.7,32.2-9.4c12-2.1,19.6-2,23.5-1.7c3.5,0.2,6.1,0.3,9.7,1.1c7,1.4,8.4,3.2,12.7,3.1
				c4.2-0.1,5.3-1.9,10.6-3.8c4.5-1.6,8.4-1.9,16.1-2.4c10-0.7,17.5-1.2,27.5,0.7c4.1,0.8,12.9,2.5,22.4,7.7
				c5.4,2.9,11,6.1,16.7,11.7c2.9,2.9,4.5,5.2,8.4,6.8c4.2,1.7,6.4,0.7,11.7,1.4c5.9,0.8,9.8,2.9,15.3,5.9c7.4,4,11.9,8.3,15.3,11.5
				c2.7,2.6,8.3,8.3,13.3,16.7c0.5,0.8,2.8,4.8,5.1,10.4c1,2.5,2.6,6.4,3.9,11.6c0.8,3.5,0.6,3.6,1.2,5.2c1.9,5.1,6.1,8,7.8,9.4
				c5.9,4.7,8,11.4,10.6,19.5c4.6,14.6,0.6,27.2-2,35.2c-1.7,5.5-3.9,11.9-9.8,18.5c-3.2,3.5-6,6.6-11,9c-4.4,2.1-7,1.9-9.8,4.6
				c-2.4,2.4-2.3,4.4-3.9,9.1c0,0-2.3,6.9-7.1,13.6c-4.3,6.1-9.3,10.1-12.2,12.2c-6.4,4.6-9.7,7-14.9,8c-2.1,0.4-4.7,0.7-5.3,2.2
				c-0.6,1.4,1.2,2.9,3.3,5.5c1,1.3,1.5,1.9,6.7,13.6c7,15.9,7.5,17.5,10,21.2c3.1,4.6,4.6,7,7.3,8.9c10.7,7.5,27,2.4,27,2.7
				s-23,7.7-42.7-0.6c-3.7-1.6-9-4.4-13.8-7.6c-5.1-3.3-8.7-6.4-13.3-10.2c-6.4-5.4-7.2-5.9-11.4-10.1c-2.2-2.3-8-6.2-19.6-14
				c-9.2-6.2-5.6-3.5-20-12.9c-8.1-5.3-11.1-7.4-16.5-9.1C736.1,491.1,730.9,490.8,727.4,490.8z"/>
			<path class="st4" d="M555.2,450.2c-0.3,0-4.9-15.8,3.5-23.3c4.7-4.2,12.3-4.7,12.4-4.6c0,0.1-3.6,0.7-7.4,3.1
				c-1.4,0.9-4.9,3.3-6.8,7.5c-0.3,0.8-0.7,1.7-1.2,8.1C555.1,448.4,555.3,450.2,555.2,450.2z"/>
			<path class="st2" d="M637,478.6c-0.6-1.1,0.7-2.6,2-4.1c1.9-2.2,3.6-4.6,5.6-6.8c0,0,3.3-3.8,5.4-8.5c3.7-8.3,0.1-16.2,0.4-16.2
				c0.4-0.1,7,12.1,1.2,21.1c-2.8,4.3-6.3,4.7-7.9,9.5c-1.8,5.4,0.6,11-0.1,11.2c-0.5,0.1-0.9-3-3.9-4.6
				C638.3,479.3,637.4,479.4,637,478.6z"/>
			<path class="st4" d="M708.5,474.5c0-0.3,4.7-1,9.5,0.8c3.7,1.4,3.9,3,9.1,5.5c1.8,0.9,3.3,1.4,5.5,2.2c6.9,2.4,8.4,2.7,9.5,4.4
				c1.3,2,1.1,4.8-0.2,5.6c-0.9,0.5-1.6-0.3-5.4-1.3c-3.7-1-5.1-0.9-6.4-2.2c-0.7-0.7-0.7-1-1.3-2.3c-0.8-1.7-2-2.8-4.5-5.1
				c-2.9-2.6-4.5-4-7-5.2C712.7,474.5,708.5,474.8,708.5,474.5z"/>
			<path class="st2" d="M828.1,503.8c-0.6-2.3-2.6-3.4-7.1-6.1c-7.6-4.6-11.3-6.9-12.6-7.5c-7.1-3.3-13.9-4.8-14-4.6
				c0,0.1,1.5,0.6,4.7,2c4.4,1.9,7.9,3.4,11.5,5.5c3.3,1.9,6.4,3.8,9.2,7.1c4.3,5,4.5,9.4,6.1,9.3
				C827.3,509.4,828.8,506.4,828.1,503.8z"/>
			<path class="st2" d="M874.2,455.4c0-1.8-2.7-2.2-5.3-4.8c-4.3-4.3-4.6-9.7-4.7-10.7c-0.3-4.3,1.3-7.7,1-7.8
				c-0.2,0-1.2,1.8-1.7,4.1c-0.7,3.5,0.2,6.5,2.1,12.4c0.1,0.4,0.8,2.5,2.2,5.2c2.1,4.2,3.1,4.4,3.4,4.4
				C872.5,458.4,874.2,456.8,874.2,455.4z"/>
			<path class="st2" d="M880.2,355.4c-2.8-3.1-9.5-1.8-12.7-1.2c-11.2,2.1-19.2,8.5-19,8.8c0.1,0.1,2-1.1,7.1-3c5.3-2,8-3,10.9-3.3
				c7.9-0.7,13.2,3.9,14.7,2.3C881.9,358.2,881.2,356.4,880.2,355.4z"/>
			<path class="st2" d="M813.9,300.8c-0.6,0.2,6.5,8.8,3.8,17.9c-0.9,3-2.3,4.5-1.5,6.8c1.6,4.4,9.1,5.9,9,6.1
				c-0.1,0.1-2.5-0.5-4.9-2c-1.6-1-3-1.8-3.7-3.5c-0.6-1.4-0.5-2.8-0.4-3.4c0.2-1.2,0.6-1.7,1.1-2.9c0.8-1.9,0.9-3.4,1-5.7
				c0.1-1.3,0.2-3.1-0.3-5.4C817,304.3,814.3,300.7,813.9,300.8z"/>
			<path class="st2" d="M599.7,320.3c-0.8,2.9-0.8,4.3-0.7,5c0.2,2.7,1.4,5,1.6,5c0.3-0.1-1-3.1-0.9-7.3c0.2-5.9,3.2-10,3.1-10.1
				C602.7,312.8,600.9,316,599.7,320.3z"/>
			<path class="st2" d="M576.6,371.1c-0.3,0-2.4,7.3-1.8,16.5c0.3,4.2,1.4,18.1,12.9,30.9c2.1,2.4,8.6,9.2,19.3,13.9
				c3.2,1.4,7.3,2.9,7.5,2.6c0.2-0.4-6-3.1-12.7-7.3c-8-5-14.9-9.3-19.6-16.6c-4-6.2-4.7-12-5.6-20
				C575.3,379.5,576.9,371.1,576.6,371.1z"/>
			<path class="st2" d="M749.6,474.7c0,0.6,17.2,5.7,30-1.8c13.9-8.2,14.6-26.6,14.4-26.7c-0.2,0-0.8,15-12.9,23.3
				C768,478.4,749.6,474.1,749.6,474.7z"/>
			<path class="st2" d="M686.2,463.4c0.3,0,5.6-16.3-2.2-32.6c-11.3-23.6-42.8-31.6-42.5-32c0.2-0.4,26.6,5.3,39.1,25.1
				C692.1,442.3,685.9,463.4,686.2,463.4z"/>
			<path class="st2" d="M683.5,427.5c0-0.2,8.5,1.1,20.8,0.7c19.6-0.6,25.7-4.7,43.7-7.5c26-4,47.8-0.8,47.8-0.7
				c0,0.1-8.7,0.2-13.6,0.2c-9.6,0-9-0.1-12.6,0c-5.8,0.2-10.2,0.9-19,2.1c-6.3,0.9-11.1,1.7-12.4,1.9c-11.1,1.9-15.5,3.2-20.2,4
				C699.7,431.5,683.5,427.7,683.5,427.5z"/>
			<path class="st4" d="M819.8,457.8c-0.3-0.1,6.2-10.6,1.6-20.4c-2.3-5-6.7-8.1-9.6-10.1c-8.1-5.7-16.1-7-16-7.3s7.3,0.3,14.4,4.2
				c2.6,1.4,10.6,5.9,13.3,14.4C826.7,448.8,820.1,457.9,819.8,457.8z"/>
			<path class="st2" d="M697.2,387.3c-0.1,0-3-14.5-16.8-26.4c-16.4-14.3-37.9-15.8-37.7-16.5c0.2-0.6,16.5-0.4,30.9,8.9
				C692.9,365.7,697.4,387.2,697.2,387.3z"/>
			<path class="st4" d="M682.2,355.1c-0.2-0.2,13.4-10.9,34.4-16.7c7.2-2,21.6-5.8,38.8-3.4c24.6,3.5,41,17.7,41.5,17
				c0.3-0.4-6.6-5.5-15.6-9.4c-2.8-1.2-9.1-3.7-18.5-5.2c-24.4-4-46,2.4-52.4,4.4C692.8,347.5,682.4,355.3,682.2,355.1z"/>
			<path class="st4" d="M751.4,334.5c-0.2-0.5,8-1.7,12.9-7.6c4.4-5.3,5.5-13.6,1.8-16.7c-1.3-1.1-3.1-1.5-3.2-1.3
				c-0.2,0.3,3,1.8,4.8,4.7c1.8,2.9,1.5,6,1.4,7.1c-0.7,6-6.1,9.6-7.6,10.5C756.8,334.2,751.6,334.9,751.4,334.5z"/>
			<path class="st4" d="M798,417.9c-0.3-0.1-0.2-10.3,6.7-19.9c11.7-16.2,35.5-20.3,35.7-19.9c0.1,0.2-8.7,3.1-20.8,11.1
				c-5,3.3-7.9,5.2-11,8.4C799.5,407.2,798.3,418,798,417.9z"/>
		</g>
	</g>
	<path class="st5" d="M727.7,245.2c-1.9,0.1-5-22.6-5.9-42.6c-0.8-18.9,0.3-37,1.4-37.1c1.2-0.1,2.7,22.1,2.9,26.4
		c0.3,4.8,0.3,6.8,0.3,6.8c0.2,5.3,0,7.2,0.6,12.6c0.7,6.4,1.9,12.2,2.2,14.2C731,234.9,729,245.1,727.7,245.2z"/>
	<path class="st5" d="M873.6,280.8c0.3,0.3,24.6-6.9,41.5-24.7c14.8-15.6,17.4-32.4,17.1-32.6c-0.3-0.1-3.7,9.7-13.9,20.9
		c-2,2.2-3.9,4.1-5.4,5.5c-4.2,4.4-5.4,6-10.1,10.2c-1.8,1.5-6.7,6-13.1,10.6C880.1,277.6,873.4,280.6,873.6,280.8z"/>
	<path class="st5" d="M584.2,280.8c-0.2,0.3-22.5-5.5-40.3-22c-15.6-14.4-21-30.6-20.8-30.8c0.2-0.1,5,9.2,15.8,19.6
		c2.2,2.1,4.1,3.8,5.7,5.1c4.4,4.1,5.7,5.6,10.6,9.4c1.8,1.4,6.9,5.5,13.3,9.6C578,278,584.3,280.6,584.2,280.8z"/>
	<path class="st5" d="M920.1,391.1c0,0.4,23.1,2.9,46.8-5.8c20.8-7.7,33-20.6,32.9-20.8c-0.1-0.2-8.7,6.7-23.4,12.4
		c-2.9,1.1-5.5,2-7.5,2.6c-5.9,2.2-7.8,3.1-14,4.9c-2.3,0.7-8.8,2.6-16.5,4.1C927,390.8,920,390.9,920.1,391.1z"/>
	<path class="st5" d="M503.7,364.5c-0.1,0.4-23.3-1.1-44.7-13.7c-18.8-11.1-28-25.9-27.8-26s7.1,8,20.3,16.1c2.6,1.6,5,2.9,6.8,3.9
		c5.3,3.1,7,4.4,12.7,7.2c2.1,1,8.1,4,15.3,6.9C497,363,503.8,364.3,503.7,364.5z"/>
</g>
</svg>
